<svg viewBox="0 0 24 24" width="200" height="200" xmlns="http://www.w3.org/2000/svg">
  <path fill="#000000" d="M12 0C5.37 0 0 5.37 0 12c0 5.303 3.438 9.8 8.205 11.385.6.11.82-.258.82-.577 0-.285-.01-1.04-.015-2.04-3.338.724-4.042-1.447-4.042-1.447-.546-1.387-1.333-1.756-1.333-1.756-1.088-.743.083-.728.083-.728 1.205.085 1.838 1.237 1.838 1.237 1.07 1.834 2.81 1.304 3.494.996.108-.776.42-1.303.763-1.605-2.675-.306-5.487-1.336-5.487-5.93 0-1.312.468-2.383 1.235-3.227-.124-.303-.535-1.526.117-3.18 0 0 1.01-.322 3.3 1.234.96-.267 1.98-.399 3-.405 1.02.006 2.04.138 3 .405 2.29-1.556 3.297-1.234 3.297-1.234.656 1.654.246 2.877.122 3.18.77.844 1.234 1.915 1.234 3.227 0 4.608-2.816 5.62-5.488 5.92.43.37.815 1.102.815 2.22 0 1.604-.015 2.894-.015 3.286 0 .32.215.694.825.576C20.566 21.794 24 17.297 24 12c0-6.63-5.37-12-12-12"></path>
</svg>
