<svg xmlns="http://www.w3.org/2000/svg" viewBox="0 0 512 512" width="512" height="512">
    <path fill="#E4405F" d="M352 0H160C71.833 0 0 71.833 0 160v192c0 88.167 71.833 160 160 160h192c88.167 0 160-71.833 160-160V160C512 71.833 440.167 0 352 0zm104 352c0 56.102-45.898 102-102 102H158c-56.102 0-102-45.898-102-102V158c0-56.102 45.898-102 102-102h196c56.102 0 102 45.898 102 102v194z"/>
    <path fill="#FFF" d="M256 113c-58.865 0-106 47.135-106 106s47.135 106 106 106 106-47.135 106-106-47.135-106-106-106zm0 184c-41.355 0-75-33.645-75-75s33.645-75 75-75 75 33.645 75 75-33.645 75-75 75z"/>
    <path fill="#FFF" d="M392 121a16 16 0 0 0-16 16v64a16 16 0 0 0 32 0v-64a16 16 0 0 0-16-16zM256 178a78 78 0 1 0 78 78 78.088 78.088 0 0 0-78-78zm0 120a42 42 0 1 1 42-42 42.048 42.048 0 0 1-42 42z"/>
</svg>
